<?xml version="1.0" encoding="UTF-8"?><svg id="Layer_1" xmlns="http://www.w3.org/2000/svg" viewBox="0 0 512 512"><g id="light"><path id="hand" d="m118.57,412.56c12-14.44,21.51-24.8,28.4-31.98,0,0,13.07-13.36,17.89-25.54,1.16-2.93,2.4-7.52,3.11-10.27.28-1.14.69-2.81.71-5.02,0-.73-.04-1.59-.24-3.11-.43-3.07-1.06-5.29-1.42-6.69-.1-.35-.61-2.87-1.67-7.87-1.28-6.14-1.93-9.23-2.62-12.89-.63-3.33-.71-3.99-1.2-6.2-.83-3.8-1.24-5.71-2.16-8.11-.81-2.16-1.16-2.46-2.38-5.73-1.08-2.87-1.32-3.99-1.42-4.53-.18-1-.55-2.99-.24-5.49.39-3.09,1.61-5.29,2.62-7.16.04-.08.89-1.4,2.62-4.07,1.99-3.07,2.36-3.64,3.11-4.53,1.24-1.5,2.56-2.81,2.87-3.11,1.4-1.36,1.87-1.63,2.62-2.62.35-.45.73-1.04,1.67-3.11.59-1.28,1.3-2.85,2.16-5.25.91-2.56,1.36-3.86,1.67-5.02.2-.77.39-1.61.96-2.62.28-.53.65-1.02,1.67-2.16,1.4-1.55,2.6-2.64,3.11-3.11.89-.81,1.71-1.5,3.33-2.87,1.85-1.55,1.89-1.55,2.87-2.38.96-.83,1.93-1.69,3.11-2.87,1.3-1.32,1.38-1.59,2.62-2.87.55-.57.81-.81,3.33-3.11,2.87-2.6,3.6-3.27,4.78-4.29.67-.59,1.48-1.26,3.11-2.62,1.26-1.06,1.77-1.46,2.62-1.91,1.04-.53,1.93-.77,2.62-.96,1.46-.39,2.2-.59,3.11-.47,1.06.14,1.75.61,2.62,1.2,1.69,1.14,2.81,2.5,3.58,3.58.67.96,2.16,3.21,3.11,6.69.45,1.61,1.65,6.22.24,11.69-.39,1.48-1.2,3.13-2.87,6.45-1.77,3.56-3.8,7.56-7.16,12.4-2.34,3.38-3.46,4.84-4.53,5.96-1.63,1.73-3.17,2.99-4.29,3.82-.06.61-.12,1.24-.24,1.91-.28,1.73-.71,3.25-1.2,4.53.83.65,1.59,1.12,2.16,1.42.81.45,1.97,1.08,3.58,1.42.39.08.89.14,1.91.24,1.77.18,1.79.08,2.62.24,1.16.2,2.28.59,2.62.71.53.18,1.08.41,1.91.47.41.04.73,0,.96,0,.41-.41.79-.79,1.2-1.2.73-.69,1.4-1.14,1.91-1.42,1.04-.61,2.03-.91,2.16-.96.94-.28,1.4-.28,2.16-.71.22-.12.47-.33.96-.71.96-.75.96-.85,1.42-1.2.59-.43.69-.33,1.91-.96.69-.37,1.2-.67,1.67-.96,1.08-.65,1.34-.91,2.16-1.42,1.16-.75,1.67-.89,2.62-1.42,1.1-.61,1.71-1.1,3.58-2.62,3.11-2.52,3.52-2.64,5.02-4.07.26-.24.89-.83,1.67-1.67,1.63-1.71,2.68-3.09,2.87-3.33,3.31-4.25,12.56-12.06,15.05-14.09.41-.33,1.4-1.14,2.62-2.38,1.28-1.3,2.07-2.34,2.87-3.33,1.4-1.79-1.75,2.3,4.29-5.25,3.23-4.03,4.98-6.18,7.4-9.31,1.28-1.67,1.71-2.26,3.11-4.07,1.06-1.36,2.03-2.93,3.82-4.78.08-.08.47-.28.71-.71.24-.45.24-.89.24-.96.02-1.59,6.97-9.62,10.27-14.09.79-1.08.77-1.14,2.87-4.07,2.34-3.27,2.74-4.09,3.82-5.25.33-.35,1.93-2.07,4.53-3.58,1.73-1,3.35-1.93,5.73-2.16.98-.08,3.46-.26,5.96,1.2,3.42,1.99,4.33,5.55,4.53,6.45.69,3.09-.28,5.75-.96,7.4-3.94,9.64-14.9,25.74-16.22,27.69-.16.35-.41.77-.71,1.2-.65.87-1.34,1.36-1.42,1.42-.79.61-4.86,7.08-16.22,26.96-.79.96-1.59,1.91-2.38,2.87-4.49,5.41-8.97,10.82-13.36,16.22.79.47,1.59.96,2.38,1.42.45-.57,1.1-1.4,1.91-2.38,1.99-2.46,3.52-4.33,5.25-6.2,1.83-1.99,3.27-3.54,5.49-5.25,2.2-1.71,4.25-2.85,5.73-3.58.43-.63,1-1.5,1.42-2.16,3.56-5.35,7.14-10.67,10.74-15.98,1.08-2.03,2.44-4.55,4.07-7.4.59-1.04,2.42-4.27,5.49-9.31,6.04-9.94,9.07-14.92,11.22-17.18.49-.53,2.01-2.09,3.58-4.53,1.08-1.69,1.77-3.17,2.16-4.07.39-1.18,1.1-2.93,2.38-4.78.71-1.02,1.59-2.24,3.11-3.33.55-.41,2.62-1.83,5.49-2.16,4.76-.51,9.13,2.34,11.45,5.73.57.83,1.93,2.87,2.16,5.73.26,3.64-1.46,6.81-3.11,9.78-.53.98-.83,1.38-1.91,3.33-1.02,1.85-1.28,2.46-2.38,4.53-.28.55-1.3,2.46-2.62,4.78-1.42,2.48-2.68,4.57-3.11,5.25-2.07,3.38-2.24,3.42-2.87,4.78-.67,1.44-.85,2.2-1.67,3.58-.81,1.36-1.42,1.91-2.16,2.87-1.52,1.97-1.99,3.52-2.87,5.49-2.77,6.26-4.94,6.36-7.64,12.89-.77,1.89-.73,2.22-1.67,4.29-.67,1.48-1.95,4.11-4.07,7.16-2.89,4.17-4.03,4.37-8.6,10.02-2.13,2.64-1.97,2.72-3.82,5.02-2.09,2.62-5.2,6.16-9.56,10.02.24.33.47.63.71.96,1.12-1.24,2.83-3.09,5.02-5.25,2.01-1.97,2.74-2.54,4.53-4.29,2.26-2.22,3.74-3.88,5.96-6.45,2.85-3.23,4.84-5.75,6.91-8.36,2.6-3.25,4.49-5.75,6.45-8.36,2.3-3.05,4.01-5.37,5.49-7.4,3.07-4.19,5.1-6.95,7.4-10.27,2.72-3.9,4.59-6.83,8.36-12.65,2.74-4.25,3.25-5.16,3.82-6.45.59-1.34.94-2.38,1.91-3.82.55-.81,1.65-2.44,3.33-3.58,3.7-2.5,8.21-1.36,8.82-1.2,5.04,1.34,7.3,5.69,7.87,6.91.43.91,1.87,4.29.96,8.11-.16.67-.39,1.34-3.58,6.91-1.5,2.64-2.62,4.53-2.62,4.53-4.39,7.46-3.76,6.83-5.49,9.56-1.81,2.85-3.76,5.39-7.64,10.49-1.57,2.05-2.36,3.07-2.38,3.11-4.45,5.84-7.01,10.13-10.02,14.8-2.66,4.21-5.67,8.6-9.07,13.13-4.76,6.32-9.54,11.87-14.09,16.71l.24.24c2.79-2.83,5.57-5.69,8.36-8.6,3.27-3.4,5.86-6.28,10.27-10.74.43-.43,1.42-1.52,2.87-2.87,1.48-1.38,2.26-1.93,3.33-2.87,1.48-1.28,2.5-2.44,4.53-4.78,1.5-1.71,3.23-3.66,5.25-6.45,1.08-1.48.96-1.42,2.62-3.82,1.95-2.79,3.07-4.23,4.53-6.2,3.03-4.11,3.13-4.64,5.49-7.87,1.4-1.95,3.56-4.78,6.45-8.11.83-.96,1.36-1.52,2.16-2.16,2.62-2.11,5.02-2.62,5.02-2.62.91-.16,3.29-.47,5.96.71.81.37,3.33,1.5,4.78,4.29,1.34,2.6.96,5.14.71,6.69-.26,1.73-.83,3.07-1.67,5.02-.02.06-.06.14-.1.24-.45,1-1.02,2.2-1.81,3.58-1.24,2.16-1.5,2.13-2.16,3.58-.43.94-.63,1.63-.71,1.91-.98,3.13-4.33,8.7-7.87,13.6-.89,1.24-.3.37-5.49,6.91-6.47,8.19-9.72,12.28-11.22,14.56-.45.67-1.48,2.28-3.11,4.29-1.77,2.24-3.25,3.72-3.58,4.07-2.07,2.13-7.77,9.05-21.47,26.74-.39.81-.98,1.97-1.67,3.33-2.79,5.43-5.55,10.25-8.82,15.51-4.72,7.58-7.67,12.34-11.93,17.89-2.2,2.85-10.33,13.24-23.63,24.11-5.73,4.7-13.36,10.23-22.91,15.51-1.24,1.36-3.11,3.38-5.49,5.73-4.29,4.25-6.1,5.51-8.6,8.11-2.01,2.11-4.01,4.59-7.4,10.27-7.89,13.11-18.87,35.76-19.8,37.72-1.48,1.73-3.8,4.15-7.1,6.42-2.44,1.67-8.52,5.41-20.01,6.59-18.85,1.93-35.42-4.74-40.3-6.85-8.05-3.48-21.39-9.25-31.8-23.3-3.98-5.37-13.2-17.79-11.24-33.45.51-4.05,1.63-7.3,2.58-9.54l-.08.04Z" style="fill:#ffdcc6; stroke-width:0px;"/><path id="heart" d="m346.41,81.01c-.08-1.42-.41-2.22-.75-2.81-.47-.79-1.02-1.26-1.3-1.48-.55-.47-1.16-.77-2.6-1.3-1.59-.57-2.85-.89-2.99-.94-1.2-.3-2.91-.79-5.04-1.48.1-1,.16-1.81.18-2.42.08-1.67.06-2.07,0-2.42-.16-1-.55-1.69-.75-2.05-.77-1.42-1.83-2.22-2.81-2.99-1.52-1.2-2.99-2.5-4.47-3.72-1.04-.85-2.54-2.16-4.29-3.92v-3.17c.81-1.97,1.63-3.46,2.24-4.47.77-1.32,1.34-2.74,2.05-4.11.06-.12.28-.55.37-1.12.04-.22.1-.65,0-1.12-.18-.77-.75-1.22-1.12-1.48-1.2-.94-2.56-.94-2.99-.94-.51,0-.87,0-1.3.18-.91.39-1.24,1.28-1.87,2.81,0,0-.49,1.2-2.42,5.23-.24.51-.47.87-.71,1.2-.08.1-.28.37-.59.67-.35.33-.67.57-.94.75-.61-.49-1.24-1-1.87-1.48-1.02-.81-2.2-1.69-2.4-1.85l-.02-.02c-.35-.26-.3-.89,0-2.24.12-.55.3-1.24.57-2.05.39-1.2.26-.98.75-2.6.77-2.6,1.3-4.11,1.3-4.11.3-.85.55-1.5.57-2.42,0-.65-.12-.98-.18-1.12-.28-.61-.79-.91-1.48-1.3-.53-.3-1.08-.61-1.87-.75-.43-.08-1.28-.2-2.24.18-.2.08-.69.28-1.12.75-.49.51-.67,1.06-.75,1.3-1.28,3.94-1.91,5.92-2.24,7.64-.02.14-.12.67-.37,1.3-.12.33-.26.69-.57,1.12-.26.39-.57.83-1.12,1.12-.53.26-1.02.24-1.69.18-.94-.08-1.61-.33-2.24-.57-.87-.33-1.63-.61-2.42-1.3-.59-.51-.94-1.04-1.12-1.3-.55-.83-.77-1.57-.94-2.05-1.26-3.98-1.02-3.05-1.3-4.11-.69-2.48-1.04-3.72-1.12-4.11-.1-.45-.28-1.24-.75-2.24-.3-.67-.41-1.02-.75-1.3-.53-.47-1.16-.53-1.48-.57-.85-.08-1.52.16-2.05.37-.35.14-1.36.55-2.24,1.48-.49.53-.67.91-.75,1.12-.04.12-.16.47-.18.94-.04.81.26,1.44.37,1.69,1.06,2.26,1.79,5.08,1.87,5.41.1.41.43,1.04.37,1.87-.02.41-.08,1.02-.57,1.48-.45.45-1.04.51-1.48.57-2.36.22-3.54.18-4.11.18-2.6,0-10.06,1.69-15.86,4.47-2.5,1.2-3.92,2.42-7.14,5.2-3.96-2.42-7.93-4.84-11.89-7.26l.04.2c-.3-.57-.63-1.12-.98-1.69-.71-1.22-1.63-2.38-3.17-4.29-2.42-2.99-2.6-3.17-4.86-5.41-1.06-1.06-2.74-3.58-4.66-4.86-.49-.33-1.26-.77-2.24-.75-.59,0-1.08.2-1.48.37-.67.26-1.1.57-1.87,1.12-.81.59-1.38,1-2.05,1.69-.57.57-.61.77-1.48,1.69-.24.26-.35.35-.94.94-1.06,1.04-1.59,1.57-1.69,1.69-1.04,1.18-1.57,2.4-2.05,3.54-.2.47-.53.87-.57,1.48-.04.63.18,1.1.37,1.48.26.55.57.94,2.05,2.42.71.73.94.94.94.94,1.97,1.91,3.72,3.54,3.72,3.54,1.99,1.85,2.28,2.09,2.81,2.81.22.33.79,1.12,1.3,2.24.63,1.38.85,2.5,1.12,3.92.45,2.36.51,4.25.57,5.77.04,1.32.02,2.42,0,3.17-.14.3-.39.77-.75,1.3-.71,1.1-1.08,1.26-1.69,2.24-.18.3-.45.81-.94,1.87-.53,1.12-.79,1.69-1.12,2.42-.81,1.89-1.32,3.42-1.48,3.92-1.55,4.55-5.55,11.61-6.16,12.69-1.5,2.66-1.06,1.61-4.86,7.83-3.19,5.25-4.82,7.91-6.16,10.63-1.16,2.36-2.07,4.62-3.92,9.15-1.04,2.56-1.89,4.8-2.81,7.46-1.1,3.25-1.57,5.12-1.87,7.1-.24,1.59-.33,2.79-.37,3.54-.28,4.51.24,7.69.37,8.4.3,1.75.67,2.91.75,3.17.49,1.52.83,2.68,1.69,3.92.2.3.37.53.57.94.53,1.18.41,2.28.37,2.6-.26,2.66.24,5.35.18,8.01-.06,2.7.51,5.35,1.69,10.63.61,2.77,1.42,6.4,3.17,11,0,0,1.44,3.82,3.35,7.46,7.4,14.13,24.91,26.96,29.09,30.03,5.39,3.94,10.84,7.28,11.75,7.83,2.99,1.81,5.55,3.25,7.46,4.29.47.35,1.18.87,2.05,1.48,3.64,2.64,5.81,4.23,6.71,4.86,3.92,2.74,7.56,4.09,9.52,4.86,1,.39,2.99,1.14,5.59,1.87,2.48.69,4.09,1.14,6.34,1.3,3.35.26,5.9-.24,6.53-.37,2.83-.59,4.76-1.61,6.71-2.6,3.11-1.61,5.2-3.27,5.77-3.72,2.64-2.13,4.25-4.15,7.46-8.21,2.07-2.62,3.5-4.7,4.11-5.59.41-.61,1.75-2.62,3.35-5.41.73-1.28,2.5-4.43,4.47-8.76,1.71-3.76,2.7-6.55,3.92-9.88,1.3-3.58,2.7-7.52,4.11-12.87.55-2.07,1.24-4.76,1.87-8.4.67-3.94.98-7.2,1.12-9.33.12-1.91.28-4.11.18-6.89-.12-4.05-.67-7.08-1.12-9.52-1.4-7.6-2.09-11.39-2.42-12.69-.06-.24-.24-.94-.18-1.87.06-.83.28-1.44.37-1.69.1-.26.45-1.73,1.12-4.66.41-1.79.53-3.17.75-5.98.16-2.05.33-4.13.18-6.89-.06-1.16-.14-2.85-.57-5.04-.41-2.22-1-4.05-1.48-5.41,0-.53-.04-1.16-.18-1.87-.22-1.12-.59-1.81-1.12-2.99-.33-.73-.79-1.81-1.3-3.17-.75-1.3-1.5-2.72-2.24-4.29-.89-1.89-1.59-3.7-2.16-5.37l.1-.04s-.1-.06-.14-.08c0-.04-.02-.06-.04-.1.75.33,1.55.63,2.42.94,1.48.51,1.85.43,3.35.94,1.5.51,1.5.65,2.6.94,1.08.26,1.97.47,2.99.18.63-.18,1.12-.49,1.87-1.12,1.81-1.57,2.87-3.23,3.17-3.72,1.79-2.89,2.48-5.41,2.99-7.28.41-1.52.65-2.89.57-4.47l.06-.04Z" style="fill:#fd8f39; isolation:isolate; opacity:.9; stroke-width:0px;"/></g></svg>