<?xml version="1.0" encoding="UTF-8"?><svg id="Layer_1" xmlns="http://www.w3.org/2000/svg" viewBox="0 0 1158.05 1900"><defs><style>.cls-1{fill:#856eaf;}.cls-1,.cls-2{stroke-width:0px;}.cls-2{fill:#0a090a;}</style></defs><g id="light"><path id="hand" class="cls-2" d="m11.78,1596.52c49.52-59.64,88.82-102.41,117.29-132.07,0,0,53.97-55.13,73.92-105.46,4.8-12.11,9.89-31.05,12.81-42.38,1.21-4.71,2.89-11.58,2.96-20.7.02-2.98-.14-6.59-.99-12.81-1.72-12.65-4.36-21.8-5.91-27.6-.39-1.46-2.56-11.82-6.9-32.52-5.32-25.4-7.98-38.1-10.84-53.22-2.6-13.78-2.93-16.43-4.93-25.63-3.42-15.73-5.13-23.59-8.87-33.51-3.36-8.91-4.77-10.15-9.86-23.65-4.47-11.86-5.47-16.43-5.91-18.73-.79-4.08-2.28-12.33-.99-22.67,1.6-12.74,6.6-21.85,10.84-29.57.16-.3,3.72-5.78,10.84-16.76,8.22-12.66,9.76-15.01,12.81-18.73,5.09-6.2,10.6-11.61,11.83-12.81,5.81-5.67,7.69-6.68,10.84-10.84,1.4-1.85,3-4.26,6.9-12.81,2.41-5.27,5.34-11.76,8.87-21.68,3.77-10.62,5.66-15.92,6.9-20.7.82-3.15,1.6-6.61,3.94-10.84,1.21-2.18,2.66-4.22,6.9-8.87,5.78-6.34,10.73-10.92,12.81-12.81,3.69-3.36,7.06-6.18,13.8-11.83,7.67-6.42,7.81-6.36,11.83-9.86,3.91-3.4,7.98-6.93,12.81-11.83,5.38-5.45,5.72-6.51,10.84-11.83,2.27-2.35,3.38-3.37,13.8-12.81,11.88-10.77,14.89-13.49,19.71-17.74,2.78-2.45,6.12-5.25,12.81-10.84,5.18-4.33,7.34-6.07,10.84-7.88,4.29-2.22,8.01-3.21,10.84-3.94,6.04-1.57,9.03-2.46,12.81-1.97,4.34.56,7.26,2.5,10.84,4.93,6.96,4.72,11.6,10.33,14.78,14.78,2.81,3.93,8.88,13.3,12.81,27.6,1.81,6.6,6.81,25.67.99,48.29-1.57,6.1-4.99,12.94-11.83,26.61-7.34,14.68-15.68,31.2-29.57,51.25-9.64,13.92-14.28,19.95-18.73,24.64-6.76,7.12-13.12,12.31-17.74,15.77-.22,2.51-.53,5.14-.99,7.88-1.17,7.12-2.98,13.39-4.93,18.73,3.43,2.7,6.54,4.61,8.87,5.91,3.39,1.89,8.13,4.48,14.78,5.91,1.63.35,3.71.55,7.88.99,7.29.76,7.38.37,10.84.99,4.81.85,9.43,2.46,10.84,2.96,2.2.77,4.49,1.69,7.88,1.97,1.64.13,3.01.08,3.94,0,1.64-1.64,3.29-3.29,4.93-4.93,2.99-2.84,5.81-4.71,7.88-5.91,4.32-2.5,8.39-3.79,8.87-3.94,3.85-1.2,5.77-1.18,8.87-2.96.89-.51,1.9-1.34,3.94-2.96,3.92-3.11,3.97-3.56,5.91-4.93,2.47-1.75,2.86-1.35,7.88-3.94,2.9-1.49,4.96-2.76,6.9-3.94,4.43-2.71,5.58-3.79,8.87-5.91,4.79-3.09,6.87-3.72,10.84-5.91,4.51-2.49,7.03-4.56,14.78-10.84,12.85-10.42,14.52-10.93,20.7-16.76,1.06-1,3.66-3.48,6.9-6.9,6.72-7.09,11.04-12.79,11.83-13.8,13.65-17.57,51.86-49.77,62.09-58.15,1.66-1.36,5.82-4.74,10.84-9.86,5.27-5.36,8.6-9.69,11.83-13.8,5.82-7.4-7.25,9.53,17.74-21.68,13.32-16.64,20.57-25.54,30.55-38.44,5.32-6.87,7.03-9.34,12.81-16.76,4.38-5.61,8.4-12.09,15.77-19.71.34-.35,1.94-1.15,2.96-2.96,1.04-1.86.98-3.69.99-3.94.12-6.52,28.83-39.71,42.38-58.15,3.24-4.41,3.21-4.71,11.83-16.76,9.68-13.53,11.3-16.88,15.77-21.68,1.35-1.46,7.95-8.56,18.73-14.78,7.12-4.11,13.88-8.02,23.65-8.87,4.01-.35,14.3-1.11,24.64,4.93,14.07,8.21,17.9,22.89,18.73,26.61,2.84,12.74-1.15,23.75-3.94,30.55-16.33,39.78-61.53,106.29-67.02,114.33-.69,1.46-1.64,3.16-2.96,4.93-2.7,3.63-5.57,5.65-5.91,5.91-3.26,2.48-20.04,29.25-67.02,111.37-3.29,3.94-6.57,7.88-9.86,11.83-18.59,22.35-36.99,44.69-55.19,67.02,3.29,1.97,6.57,3.94,9.86,5.91,1.86-2.36,4.57-5.77,7.88-9.86,8.24-10.15,14.51-17.88,21.68-25.63,7.59-8.19,13.53-14.61,22.67-21.68,9.09-7.04,17.51-11.75,23.65-14.78,1.76-2.64,4.15-6.23,5.91-8.87,14.72-22.05,29.5-44.07,44.35-66.04,4.47-8.42,10.09-18.78,16.76-30.55,2.44-4.3,10.02-17.64,22.67-38.44,24.98-41.08,37.47-61.62,46.32-70.96,2.03-2.14,8.35-8.63,14.78-18.73,4.46-7.01,7.3-13.11,8.87-16.76,1.6-4.89,4.49-12.08,9.86-19.71,2.95-4.2,6.56-9.24,12.81-13.8,2.29-1.67,10.85-7.59,22.67-8.87,19.62-2.12,37.72,9.69,47.31,23.65,2.35,3.43,8,11.87,8.87,23.65,1.11,15.03-6.09,28.15-12.81,40.41-2.19,4-3.44,5.7-7.88,13.8-4.19,7.62-5.31,10.16-9.86,18.73-1.21,2.27-5.41,10.17-10.84,19.71-5.85,10.28-11.09,18.86-12.81,21.68-8.55,13.96-9.24,14.12-11.83,19.71-2.77,5.98-3.51,9.09-6.9,14.78-3.34,5.61-5.85,7.92-8.87,11.83-6.3,8.17-8.23,14.53-11.83,22.67-11.43,25.9-20.42,26.26-31.54,53.22-3.21,7.79-3.06,9.19-6.9,17.74-2.76,6.14-8.06,16.99-16.76,29.57-11.89,17.2-16.59,18.02-35.48,41.4-8.82,10.92-8.18,11.21-15.77,20.7-8.63,10.79-21.46,25.4-39.42,41.4.99,1.31,1.97,2.63,2.96,3.94,4.6-5.15,11.63-12.79,20.7-21.68,8.29-8.14,11.37-10.54,18.73-17.74,9.32-9.13,15.41-16.08,24.64-26.61,11.72-13.38,20.01-23.74,28.58-34.5,10.73-13.46,18.54-23.8,26.61-34.5,9.52-12.61,16.51-22.15,22.67-30.55,12.69-17.33,21.05-28.74,30.55-42.38,11.25-16.14,18.99-28.18,34.5-52.24,11.33-17.58,13.42-21.3,15.77-26.61,2.44-5.5,3.85-9.79,7.88-15.77,2.24-3.32,6.77-10.04,13.8-14.78,15.28-10.31,33.95-5.6,36.47-4.93,20.8,5.58,30.15,23.49,32.52,28.58,1.77,3.8,7.72,17.74,3.94,33.51-.67,2.8-1.62,5.56-14.78,28.58-6.23,10.89-10.84,18.73-10.84,18.73-18.16,30.83-15.5,28.18-22.67,39.42-7.47,11.72-15.5,22.27-31.54,43.37-6.45,8.48-9.74,12.66-9.86,12.81-18.38,24.06-28.94,41.83-41.4,61.11-10.99,17.36-23.41,35.55-37.45,54.21-19.64,26.1-39.35,49.03-58.15,68.99.33.33.66.66.99.99,11.47-11.71,22.97-23.54,34.5-35.48,13.54-14.04,24.14-25.92,42.38-44.35,1.73-1.75,5.84-6.27,11.83-11.83,6.13-5.7,9.36-7.97,13.8-11.83,6.1-5.31,10.31-10.11,18.73-19.71,6.18-7.05,13.34-15.14,21.68-26.61,4.47-6.15,3.92-5.88,10.84-15.77,8.06-11.52,12.7-17.45,18.73-25.63,12.52-16.98,12.95-19.12,22.67-32.52,5.84-8.05,14.7-19.75,26.61-33.51,3.45-3.99,5.65-6.28,8.87-8.87,10.84-8.74,20.7-10.84,20.7-10.84,3.75-.66,13.64-1.9,24.64,2.96,3.37,1.49,13.78,6.24,19.71,17.74,5.56,10.78,3.95,21.21,2.96,27.6-1.11,7.18-3.45,12.64-6.9,20.7-.11.26-.26.61-.45,1.03-1.81,4.13-4.19,9.07-7.44,14.74-5.11,8.9-6.18,8.83-8.87,14.78-1.73,3.82-2.6,6.76-2.96,7.88-4.06,12.91-17.86,35.91-32.52,56.18-3.69,5.1-1.25,1.49-22.67,28.58-26.74,33.81-40.1,50.72-46.32,60.12-1.83,2.77-6.14,9.38-12.81,17.74-7.34,9.2-13.47,15.41-14.78,16.76-8.54,8.79-32.08,37.33-88.7,110.39-1.63,3.35-3.99,8.11-6.9,13.8-11.46,22.4-22.96,42.34-36.47,64.06-19.46,31.3-31.66,50.93-49.28,73.92-9.04,11.8-42.62,54.63-97.57,99.55-23.69,19.36-55.15,42.22-94.62,64.06-5.12,5.65-12.86,13.96-22.67,23.65-17.74,17.54-25.19,22.73-35.48,33.51-8.31,8.71-16.52,19.02-30.55,42.38-32.55,54.17-77.93,147.71-81.81,155.73-6.1,7.16-15.71,17.15-29.34,26.51-10.09,6.93-35.21,22.32-82.65,27.17-77.81,7.96-146.25-19.57-166.42-28.3-33.21-14.38-88.3-38.22-131.33-96.23-16.44-22.16-54.52-73.5-46.42-138.12,2.09-16.69,6.75-30.17,10.66-39.4Z"/><path id="heart" class="cls-1" d="m952.66,227.32c-.37-5.87-1.68-9.17-3.08-11.55-1.9-3.24-4.22-5.19-5.39-6.16-2.3-1.91-4.77-3.23-10.78-5.39-6.59-2.37-11.73-3.7-12.33-3.85-4.93-1.28-12-3.26-20.8-6.16.41-4.08.64-7.5.77-10.01.36-6.87.25-8.55,0-10.01-.7-4.08-2.26-6.97-3.08-8.47-3.23-5.89-7.54-9.17-11.55-12.33-6.3-4.96-12.31-10.29-18.49-15.41-4.27-3.54-10.49-8.94-17.72-16.18v-13.1c3.39-8.12,6.73-14.26,9.24-18.49,3.23-5.43,5.58-11.33,8.47-16.95.27-.53,1.15-2.23,1.54-4.62.14-.88.44-2.71,0-4.62-.73-3.15-3.14-5.02-4.62-6.16-4.96-3.84-10.59-3.87-12.33-3.85-2.1.03-3.65.02-5.39.77-3.75,1.62-5.12,5.28-7.7,11.55,0,0-2.02,4.92-10.01,21.57-1.01,2.11-1.92,3.63-2.92,4.95-.31.4-1.17,1.49-2.47,2.75-1.42,1.38-2.78,2.38-3.85,3.08-2.52-2.05-5.08-4.1-7.7-6.16-4.23-3.33-9.06-6.98-9.89-7.61-.04-.03-.07-.05-.12-.09-1.39-1.13-1.26-3.73,0-9.24.51-2.24,1.25-5.12,2.31-8.47,1.57-4.94,1.08-4.02,3.08-10.78,3.18-10.74,5.39-16.95,5.39-16.95,1.26-3.54,2.29-6.18,2.31-10.01.02-2.7-.48-3.99-.77-4.62-1.17-2.53-3.28-3.74-6.16-5.39-2.21-1.26-4.41-2.52-7.7-3.08-1.76-.3-5.32-.85-9.24.77-.85.35-2.81,1.19-4.62,3.08-1.99,2.08-2.74,4.35-3.08,5.39-5.25,16.3-7.88,24.45-9.24,31.58-.12.63-.52,2.75-1.54,5.39-.51,1.32-1.12,2.87-2.31,4.62-1.06,1.56-2.36,3.47-4.62,4.62-2.18,1.11-4.2.98-6.93.77-3.86-.3-6.65-1.33-9.24-2.31-3.59-1.36-6.75-2.55-10.01-5.39-2.46-2.14-3.88-4.27-4.62-5.39-2.27-3.43-3.22-6.45-3.85-8.47-5.17-16.43-4.18-12.56-5.39-16.95-2.84-10.23-4.25-15.34-4.62-16.95-.41-1.82-1.15-5.16-3.08-9.24-1.29-2.73-1.7-4.19-3.08-5.39-2.17-1.89-4.75-2.16-6.16-2.31-3.55-.37-6.28.67-8.47,1.54-1.43.57-5.6,2.29-9.24,6.16-2.05,2.17-2.76,3.77-3.08,4.62-.2.54-.69,1.95-.77,3.85-.14,3.37,1.1,5.99,1.54,6.93,4.35,9.35,7.36,21,7.7,22.34.43,1.68,1.78,4.25,1.54,7.7-.12,1.65-.33,4.17-2.31,6.16-1.84,1.85-4.28,2.13-6.16,2.31-9.75.95-14.62.77-16.95.77-10.78,0-41.6,6.93-65.48,18.49-10.31,4.99-16.21,9.95-29.45,21.46-16.37-9.98-32.75-19.96-49.12-29.93l.17.82c-1.3-2.34-2.64-4.64-4.02-6.99-2.97-5.05-6.73-9.83-13.1-17.72-9.96-12.33-10.78-13.1-20.03-22.34-4.4-4.4-11.37-14.74-19.26-20.03-2.03-1.36-5.23-3.2-9.24-3.08-2.46.07-4.44.86-6.16,1.54-2.76,1.09-4.49,2.32-7.7,4.62-3.39,2.43-5.74,4.12-8.47,6.93-2.32,2.39-2.55,3.17-6.16,6.93-1.03,1.08-1.44,1.46-3.85,3.85-4.34,4.3-6.51,6.46-6.93,6.93-4.31,4.88-6.47,9.95-8.47,14.64-.84,1.96-2.18,3.6-2.31,6.16-.13,2.59.78,4.56,1.54,6.16,1.09,2.29,2.39,3.87,8.47,10.01,2.96,2.99,3.85,3.85,3.85,3.85,8.17,7.91,15.41,14.64,15.41,14.64,8.23,7.65,9.44,8.66,11.55,11.55.95,1.3,3.26,4.58,5.39,9.24,2.63,5.74,3.52,10.32,4.62,16.18,1.84,9.77,2.11,17.55,2.31,23.88.17,5.46.1,9.98,0,13.1-.61,1.24-1.62,3.16-3.08,5.39-2.96,4.54-4.42,5.22-6.93,9.24-.76,1.22-1.81,3.39-3.85,7.7-2.2,4.64-3.3,6.97-4.62,10.01-3.39,7.83-5.47,14.14-6.16,16.18-6.36,18.8-22.9,47.95-25.42,52.38-6.24,11-4.35,6.63-20.03,32.35-13.19,21.64-19.89,32.68-25.42,43.91-4.81,9.77-8.6,19.09-16.18,37.75-4.28,10.54-7.85,19.79-11.55,30.81-4.51,13.41-6.43,21.13-7.7,29.27-1.02,6.54-1.35,11.53-1.54,14.64-1.16,18.61,1.04,31.78,1.54,34.66,1.26,7.25,2.73,11.99,3.08,13.1,1.97,6.27,3.48,11.05,6.93,16.18.84,1.24,1.55,2.15,2.31,3.85,2.18,4.89,1.67,9.44,1.54,10.78-1.07,10.99,1.05,22.08.77,33.12-.28,11.14,2.12,22.06,6.93,43.91,2.51,11.39,5.89,26.47,13.1,45.45,0,0,5.99,15.76,13.87,30.81,30.57,58.39,102.87,111.35,120.17,124.02,22.24,16.29,44.79,30.07,48.53,32.35,12.33,7.51,22.96,13.46,30.81,17.72,1.97,1.44,4.91,3.58,8.47,6.16,15.06,10.94,24,17.43,27.73,20.03,16.23,11.3,31.26,16.86,39.29,20.03,4.12,1.63,12.36,4.73,23.11,7.7,10.27,2.84,16.89,4.67,26.19,5.39,13.83,1.08,24.36-1,26.96-1.54,11.66-2.44,19.69-6.62,27.73-10.78,12.81-6.63,21.52-13.51,23.88-15.41,10.95-8.81,17.57-17.17,30.81-33.89,8.6-10.86,14.44-19.38,16.95-23.11,1.71-2.54,7.24-10.82,13.87-22.34,3.05-5.3,10.36-18.27,18.49-36.21,7.03-15.5,11.19-27.02,16.18-40.83,5.35-14.81,11.18-31.08,16.95-53.15,2.25-8.6,5.1-19.64,7.7-34.66,2.81-16.25,4.03-29.69,4.62-38.52.53-7.91,1.13-16.94.77-28.5-.52-16.7-2.77-29.2-4.62-39.29-5.76-31.36-8.64-47.04-10.01-52.38-.25-.97-1.02-3.88-.77-7.7.23-3.46,1.19-5.98,1.54-6.93.4-1.09,1.81-7.14,4.62-19.26,1.71-7.36,2.17-13.12,3.08-24.65.67-8.44,1.35-17.07.77-28.5-.25-4.82-.62-11.77-2.31-20.8-1.71-9.13-4.08-16.69-6.16-22.34,0-2.22-.2-4.83-.77-7.7-.92-4.62-2.44-7.46-4.62-12.33-1.37-3.04-3.28-7.49-5.39-13.1-3.1-5.34-6.23-11.25-9.24-17.72-3.66-7.85-6.55-15.28-8.9-22.18l.43-.16c-.2-.11-.42-.24-.62-.35-.05-.13-.11-.28-.15-.42,3.07,1.33,6.41,2.63,10.01,3.85,6.11,2.07,7.62,1.79,13.87,3.85,6.24,2.06,6.19,2.72,10.78,3.85,4.49,1.1,8.11,1.95,12.33.77,2.56-.71,4.66-1.99,7.7-4.62,7.47-6.45,11.85-13.39,13.1-15.41,7.36-11.92,10.24-22.31,12.33-30.04,1.69-6.28,2.72-11.92,2.31-18.49Z"/></g></svg>